<?xml version="1.0" standalone="no"?>
<!DOCTYPE svg PUBLIC "-//W3C//DTD SVG 20010904//EN"
 "http://www.w3.org/TR/2001/REC-SVG-20010904/DTD/svg10.dtd">
<svg version="1.0" xmlns="http://www.w3.org/2000/svg"
 width="56.000000pt" height="58.000000pt" viewBox="0 0 56.000000 58.000000"
 preserveAspectRatio="xMidYMid meet">

<g transform="translate(0.000000,58.000000) scale(0.100000,-0.100000)"
fill="#000000" stroke="none">
<path d="M207 486 c-121 -44 -181 -185 -126 -301 77 -163 295 -174 385 -19 72
122 4 289 -132 323 -55 14 -80 13 -127 -3z m-13 -140 c-6 -39 -4 -45 15 -51
32 -10 41 2 41 51 0 61 24 54 28 -8 2 -37 -1 -49 -17 -60 -15 -11 -21 -28 -23
-69 -4 -68 -22 -67 -26 3 -2 38 -8 56 -23 66 -28 20 -27 112 2 112 5 0 6 -20
3 -44z m41 4 c0 -18 -6 -35 -12 -37 -9 -3 -13 8 -13 37 0 29 4 40 13 38 6 -3
12 -20 12 -38z m145 -80 c0 -68 -4 -120 -9 -120 -6 0 -11 15 -13 33 -3 28 -7
32 -35 35 -36 4 -37 7 -22 71 11 51 44 101 65 101 11 0 14 -23 14 -120z"/>
<path d="M343 335 c-6 -11 -14 -37 -18 -58 -6 -30 -4 -37 9 -37 22 0 28 18 24
71 -3 39 -4 42 -15 24z"/>
</g>
</svg>
